<?xml version="1.0" encoding="UTF-8" standalone="no"?>
<!-- Created with Inkscape (http://www.inkscape.org/) -->

<svg
   xmlns:dc="http://purl.org/dc/elements/1.1/"
   xmlns:cc="http://creativecommons.org/ns#"
   xmlns:rdf="http://www.w3.org/1999/02/22-rdf-syntax-ns#"
   xmlns:svg="http://www.w3.org/2000/svg"
   xmlns="http://www.w3.org/2000/svg"
   xmlns:sodipodi="http://sodipodi.sourceforge.net/DTD/sodipodi-0.dtd"
   xmlns:inkscape="http://www.inkscape.org/namespaces/inkscape"
   width="600"
   height="600"
   viewBox="0 0 158.75 158.75"
   version="1.1"
   id="svg4535"
   inkscape:version="0.92.4 (5da689c313, 2019-01-14)"
   sodipodi:docname="logo 1 square.svg">
  <defs
     id="defs4529" />
  <sodipodi:namedview
     id="base"
     pagecolor="#ffffff"
     bordercolor="#666666"
     borderopacity="1.0"
     inkscape:pageopacity="0.0"
     inkscape:pageshadow="2"
     inkscape:zoom="0.49497475"
     inkscape:cx="659.23614"
     inkscape:cy="383.95111"
     inkscape:document-units="mm"
     inkscape:current-layer="layer1"
     showgrid="false"
     units="px"
     inkscape:snap-global="false"
     inkscape:window-width="1920"
     inkscape:window-height="1017"
     inkscape:window-x="-8"
     inkscape:window-y="-8"
     inkscape:window-maximized="1" />
  <metadata
     id="metadata4532">
    <rdf:RDF>
      <cc:Work
         rdf:about="">
        <dc:format>image/svg+xml</dc:format>
        <dc:type
           rdf:resource="http://purl.org/dc/dcmitype/StillImage" />
        <dc:title></dc:title>
      </cc:Work>
    </rdf:RDF>
  </metadata>
  <g
     inkscape:label="Layer 1"
     inkscape:groupmode="layer"
     id="layer1"
     transform="translate(0,-138.24998)">
    <path
       sodipodi:nodetypes="cccccccccccsscccccccccccsscc"
       inkscape:connector-curvature="0"
       d="m 38.558357,179.67088 c 0.524768,-1.01893 1.60684,-1.57135 2.772272,-1.41612 l 6.611656,0.88351 1.244048,-6.55519 c 0.277625,-1.45963 1.561323,-2.38641 3.03413,-2.19062 l 6.613612,0.88211 1.244048,-6.55514 c 0.277625,-1.45968 1.561323,-2.38645 3.034155,-2.19067 l 7.756945,0.80044 0.100714,-6.47352 c 0.217319,-1.15382 1.081315,-2.00618 2.211692,-2.18228 1.13045,-0.17601 2.325974,0.35294 3.052782,1.35962 l 35.991729,49.85108 c 0.72913,1.00984 0.85361,2.30925 0.3295,3.32508 -0.52411,1.01578 -1.60513,1.56756 -2.7688,1.41064 l -6.61271,-0.88076 -1.24495,6.55384 c -0.27795,1.45922 -1.56162,2.38604 -3.034158,2.19062 l -6.612683,-0.88081 -1.244952,6.55389 c -0.277944,1.45919 -1.561642,2.38603 -3.034155,2.19062 l -6.612688,-0.88082 -1.243021,6.55253 c -0.219275,1.15531 -1.084102,2.0085 -2.215163,2.18773 -1.130499,0.17894 -2.320425,-0.35086 -3.049531,-1.36128 L 38.891082,182.99435 c -0.726833,-1.00674 -0.85698,-2.30498 -0.33275,-3.32347 z"
       id="path5115"
       style="fill:#a2a4bb;fill-opacity:1;stroke-width:0.12607266"
       inkscape:transform-center-x="3.9438957"
       inkscape:transform-center-y="-5.2745176" />
    <path
       inkscape:transform-center-y="-6.584789"
       inkscape:transform-center-x="-0.14208493"
       style="fill:#decd87;fill-opacity:1;stroke-width:0.12607266"
       id="path5113"
       d="m 72.551795,154.55093 c 1.041029,-0.4795 2.233717,-0.24825 3.056205,0.59194 l 4.664487,4.76836 5.017606,-4.39794 c 1.117763,-0.97881 2.699865,-0.91826 3.739574,0.14301 l 4.666883,4.76847 5.017601,-4.39793 c 1.117738,-0.97882 2.699869,-0.91831 3.739549,0.143 l 5.32026,5.42183 4.36425,-5.05128 c 0.88189,-0.77507 2.08756,-0.91448 3.08652,-0.35671 0.99893,0.55762 1.615,1.71066 1.56753,2.95141 l -2.35079,61.44107 c -0.0474,1.24474 -0.74988,2.34502 -1.78844,2.82249 -1.03856,0.47739 -2.23005,0.24658 -3.05012,-0.59412 l -4.66696,-4.76689 -5.017524,4.39634 c -1.117739,0.97836 -2.699865,0.91783 -3.739574,-0.143 l -4.666957,-4.76691 -5.017527,4.39634 c -1.117739,0.97835 -2.699865,0.91783 -3.73955,-0.143 l -4.666961,-4.76692 -5.015156,4.3964 c -0.884286,0.77514 -2.091177,0.9146 -3.092604,0.3592 -1.000694,-0.5555 -1.611583,-1.70602 -1.563964,-2.9507 l 2.350786,-61.4411 c 0.04718,-1.24077 0.744556,-2.34365 1.784876,-2.82312 z"
       inkscape:connector-curvature="0"
       sodipodi:nodetypes="cccccccccccsscccccccccccsscc" />
    <path
       sodipodi:nodetypes="cccccccccccsscccccccccccssc"
       inkscape:connector-curvature="0"
       d="m 114.50647,155.58844 c 1.11671,0.25824 1.91833,1.17088 2.05454,2.33871 l 0.77012,6.62581 6.65977,-0.40675 c 1.48307,-0.0902 2.69715,0.92633 2.86968,2.40205 l 0.77196,6.62735 6.65977,-0.40675 c 1.48307,-0.0902 2.69715,0.92631 2.86968,2.40205 l 0.77196,8.50568 6.65977,-1.14177 c 1.17181,-0.0731 2.21056,-0.58874 2.65928,0.46356 0.44867,1.05242 0.23003,2.34132 -0.56686,3.29342 l -39.46535,47.14894 c -0.79949,0.9551 -2.02831,1.39541 -3.14184,1.13734 -1.11351,-0.25824 -1.91427,-1.17022 -2.0484,-2.33675 l -0.77298,-6.62615 -6.658743,0.4055 c -1.482756,0.0897 -2.696833,-0.9267 -2.869686,-2.402 l -0.772986,-6.62615 -6.658738,0.4055 c -1.482732,0.0897 -2.696839,-0.92675 -2.869692,-2.4021 l -0.772986,-6.6261 -6.656905,0.40718 c -1.173718,0.0719 -2.213476,-0.55669 -2.665421,-1.60894 -0.451359,-1.05176 -0.230275,-2.33553 0.569258,-3.29071 l 39.465359,-47.14892 c 0.79697,-0.95212 2.02329,-1.39763 3.13944,-1.14 z"
       id="path5117"
       style="fill:#e79c6a;fill-opacity:1;stroke-width:0.12607266"
       inkscape:transform-center-x="-4.1421722"
       inkscape:transform-center-y="-5.1203686" />
    <path
       inkscape:transform-center-y="-1.4090625"
       inkscape:transform-center-x="-6.4337599"
       style="fill:#e75c6a;fill-opacity:1;stroke-width:0.12607266"
       id="path5127"
       d="m 147.60057,182.98738 c 0.71055,0.89934 0.76609,2.11281 0.14276,3.10974 l -3.53883,5.65428 5.45378,3.84376 c 1.21415,0.85634 1.52698,2.4085 0.73957,3.66851 l -3.53837,5.65667 5.45376,3.84374 c 1.21415,0.85637 1.52697,2.40853 0.73957,3.66851 l -4.11002,6.96335 6.02541,2.53709 c 0.96055,0.67508 1.37932,1.81423 1.07212,2.91623 -0.3073,1.10197 -1.28328,1.97171 -2.50044,2.21712 l -60.273299,12.1516 c -1.22102,0.24614 -2.455509,-0.17821 -3.163666,-1.07518 -0.708108,-0.89724 -0.76333,-2.10973 -0.139094,-3.10434 l 3.536824,-5.65635 -5.452214,-3.84408 c -1.213662,-0.85649 -1.526489,-2.4086 -0.739594,-3.66846 l 3.536825,-5.65636 -5.452214,-3.84405 c -1.213662,-0.8565 -1.526465,-2.40865 -0.739569,-3.66854 l 3.536824,-5.65633 -5.451725,-3.84171 c -0.961245,-0.67738 -1.380336,-1.81778 -1.075698,-2.92166 0.304809,-1.10321 1.279596,-1.96733 2.500641,-2.21352 l 60.273299,-12.15161 c 1.21718,-0.24531 2.45299,0.17283 3.16349,1.07159 z"
       inkscape:connector-curvature="0"
       sodipodi:nodetypes="cccccccccccsscccccccccccsscc" />
    <path
       sodipodi:nodetypes="cccccccccccsscccccccccccsscc"
       inkscape:connector-curvature="0"
       d="m 156.40147,224.41425 c 0.005,1.1462 -0.70075,2.1354 -1.80643,2.53535 l -6.27363,2.26618 1.92026,6.38984 c 0.4271,1.42309 -0.2844,2.83761 -1.6815,3.34329 l -6.27475,2.26838 1.92025,6.38989 c 0.42711,1.42304 -0.28439,2.83752 -1.68149,3.34327 l -8.56142,2.75831 3.30855,6.06327 c 0.33938,1.12395 0.86415,2.11543 -0.0572,2.7931 -0.92173,0.67765 -2.22646,0.75989 -3.33574,0.20192 L 78.948186,235.14069 c -1.112654,-0.55977 -1.822547,-1.65514 -1.826262,-2.79808 -0.0024,-1.14307 0.700994,-2.13129 1.805874,-2.52887 l 6.273338,-2.26909 -1.918836,-6.38916 c -0.42662,-1.42291 0.284861,-2.83734 1.681448,-3.34326 l 6.273333,-2.26909 -1.918837,-6.38916 c -0.42662,-1.42286 0.28491,-2.83739 1.681472,-3.34326 l 6.273358,-2.26907 -1.919912,-6.38705 c -0.338544,-1.12612 0.03544,-2.28212 0.956179,-2.96287 0.920538,-0.68019 2.220834,-0.75871 3.333659,-0.19899 l 54.93013,27.62634 c 1.10919,0.55798 1.8237,1.64959 1.82834,2.79515 z"
       id="path5129"
       style="fill:#a55c6a;fill-opacity:1;stroke-width:0.12607266"
       inkscape:transform-center-x="-5.9326186"
       inkscape:transform-center-y="2.8603878" />
    <path
       inkscape:transform-center-y="5.9419482"
       inkscape:transform-center-x="-2.8407051"
       style="fill:#a55ca5;fill-opacity:1;stroke-width:0.12607266"
       id="path5131"
       d="m 137.27645,262.9282 c -0.71339,0.89711 -1.88215,1.22815 -2.99507,0.84888 l -6.31286,-2.15453 -2.49717,6.18721 c -0.55654,1.37761 -1.9963,2.03651 -3.40276,1.55753 l -6.31511,-2.15353 -2.49719,6.18726 c -0.55652,1.37756 -1.99628,2.03649 -3.40277,1.55756 l -6.88671,-2.56188 -1.92556,6.59555 c -0.43799,1.08936 -1.451541,1.75703 -2.594458,1.70961 -1.143088,-0.046 -1.044476,-1.54595 -1.585964,-2.66342 L 70.126696,222.86601 c -0.543127,-1.12089 -0.387288,-2.43129 0.324511,-3.32555 0.712044,-0.89418 1.879773,-1.22485 2.990618,-0.84422 l 6.314401,2.15207 2.497854,-6.18574 c 0.556816,-1.3772 1.996524,-2.0361 3.402742,-1.55759 l 6.314425,2.15207 2.497825,-6.18574 c 0.55684,-1.37715 1.996597,-2.0361 3.402815,-1.55758 l 6.314403,2.15211 2.4957,-6.18484 c 0.43996,-1.09045 1.45469,-1.75872 2.5989,-1.7142 1.14365,0.046 2.20751,0.79662 2.72592,1.9293 l 25.59075,55.90746 c 0.51665,1.129 0.39164,2.42771 -0.32109,3.32459 z"
       inkscape:connector-curvature="0"
       sodipodi:nodetypes="cccccccccccsscccccccccccsscc" />
    <path
       sodipodi:nodetypes="cccccccccccsscccccccccccsscc"
       inkscape:connector-curvature="0"
       d="m 99.748971,280.86357 c -1.111579,0.2795 -2.241198,-0.16721 -2.895135,-1.14429 l -3.707355,-5.54525 -5.741158,3.39949 c -1.27876,0.75661 -2.822776,0.40591 -3.649371,-0.82885 l -3.709755,-5.54579 -5.741207,3.39949 c -1.278711,0.75661 -2.822727,0.40592 -3.649371,-0.82879 l -4.036365,-6.11747 -5.414544,3.97114 c -1.009494,0.59955 -2.220223,0.51453 -3.099521,-0.21683 -0.880424,-0.73047 -0.440065,-1.97511 -0.180896,-3.1895 l 12.800262,-59.9592 c 0.26005,-1.21809 1.168683,-2.16686 2.277254,-2.44517 1.108694,-0.27785 2.237286,0.16843 2.88873,1.14529 l 3.710093,5.54423 5.74082,-3.39788 c 1.278711,-0.75612 2.822679,-0.4055 3.649371,0.82874 l 3.710093,5.54425 5.740816,-3.39792 c 1.278687,-0.75605 2.822728,-0.40511 3.649418,0.82882 l 3.71005,5.54425 5.73856,-3.39847 c 1.01175,-0.5992 2.22375,-0.51403 3.10583,0.2161 0.88086,0.73084 1.27016,1.97345 0.99422,3.18814 l -13.61696,59.95922 c -0.27511,1.21078 -1.16306,2.16669 -2.273928,2.44647 z"
       id="path5133"
       style="fill:#a5bda5;fill-opacity:1;stroke-width:0.12607266"
       inkscape:transform-center-x="1.3512401"
       inkscape:transform-center-y="6.4462563" />
    <path
       inkscape:transform-center-y="4.333565"
       inkscape:transform-center-x="5.0707861"
       style="fill:#3dbda5;fill-opacity:1;stroke-width:0.12768491"
       id="path5135"
       d="m 59.163183,272.21185 c -1.06435,-0.46356 -1.693842,-1.52045 -1.613857,-2.70849 l 0.457152,-6.74024 -6.706895,-0.82516 c -1.493488,-0.18431 -2.514716,-1.42061 -2.413855,-2.92204 l 0.537211,-8.37554 -6.788616,-0.17185 c -1.493415,-0.18432 -2.514667,-0.44058 -2.413879,-1.94196 l 0.455539,-6.7422 -6.706896,-0.82517 c -1.180441,-0.14301 -2.098754,-0.96083 -2.351348,-2.0914 -0.254182,-1.13035 0.203385,-2.37386 1.17301,-3.17479 l 48.009342,-39.66023 c 0.972655,-0.80328 2.277577,-1.01483 3.338724,-0.55225 1.061099,0.46302 1.690004,1.51896 1.608161,2.70534 l -0.454316,6.74115 6.705624,0.82623 c 1.493145,0.18505 2.514374,1.42091 2.413903,2.92197 l -0.454292,6.74117 6.705675,0.82615 c 1.49305,0.18505 2.51435,1.42111 2.41388,2.9222 l -0.45437,6.74102 6.70418,0.82442 c 1.18201,0.14545 2.10128,0.96329 2.35707,2.09443 0.25433,1.13089 -0.20216,2.36819 -1.17479,3.17166 l -48.009398,39.6603 c -0.969575,0.80081 -2.272952,1.01808 -3.336861,0.55525 z"
       inkscape:connector-curvature="0"
       sodipodi:nodetypes="cccccccccccsscccccccccccsscc" />
    <path
       inkscape:transform-center-y="0.13384328"
       inkscape:transform-center-x="4.2974126"
       style="fill:#4b81d3;fill-opacity:1;stroke-width:0.1832833"
       id="path5139"
       d="m 3.6455536,249.37343 c -0.7755527,-1.47476 -0.5311727,-3.22373 0.6252872,-4.48232 l 6.5652102,-7.13696 -6.7691088,-6.94744 c -1.5069815,-1.54754 -1.5400316,-3.84921 -0.078958,-5.43995 l 6.5651858,-7.1406 -6.7691088,-6.94754 c -1.5069571,-1.54751 -1.5399827,-3.84921 -0.078958,-5.43994 l 6.5652348,-7.1405 -6.7691089,-6.94761 c -1.1929812,-1.22078 -1.4873031,-2.96072 -0.7547986,-4.45353 0.7305488,-1.494 2.3597082,-2.4756 4.1646784,-2.50181 l 89.3784571,-1.2935 c 1.810617,-0.0279 3.461728,0.90866 4.234594,2.3801 0.77237,1.47134 0.52828,3.21872 -0.628932,4.47367 l -6.562888,7.14041 6.76674,6.94763 c 1.50624,1.54761 1.53939,3.84931 0.079,5.43984 l -6.562916,7.14061 6.766856,6.94744 c 1.50618,1.5476 1.53925,3.8494 0.079,5.44013 l -6.562886,7.14031 6.766786,6.94429 c 1.19315,1.2241 1.48786,2.9658 0.75844,4.46215 -0.73094,1.49466 -2.353253,2.47023 -4.163919,2.4966 l -89.3785301,1.29343 c -1.804848,0.0279 -3.4595527,-0.90125 -4.2352276,-2.37491 z"
       inkscape:connector-curvature="0"
       sodipodi:nodetypes="cccccccccccsscccccccccccssc" />
    <text
       xml:space="preserve"
       style="font-style:normal;font-variant:normal;font-weight:normal;font-stretch:normal;font-size:19.44705582px;line-height:125%;font-family:Montserrat;-inkscape-font-specification:Montserrat;text-align:center;letter-spacing:0px;word-spacing:0px;text-anchor:middle;fill:#000000;fill-opacity:1;stroke:none;stroke-width:0.66296774px;stroke-linecap:butt;stroke-linejoin:miter;stroke-opacity:1"
       x="44.417454"
       y="204.56204"
       id="text5121"><tspan
         sodipodi:role="line"
         id="tspan5119"
         x="44.417454"
         y="204.56204"
         style="font-style:normal;font-variant:normal;font-weight:bold;font-stretch:normal;font-family:Montserrat;-inkscape-font-specification:'Montserrat Bold';fill:#000000;fill-opacity:1;stroke-width:0.66296774px">book</tspan></text>
    <text
       id="text5145"
       y="245.11774"
       x="45.136902"
       style="font-style:normal;font-variant:normal;font-weight:normal;font-stretch:normal;font-size:51.85429382px;line-height:125%;font-family:Montserrat;-inkscape-font-specification:Montserrat;text-align:center;letter-spacing:0px;word-spacing:0px;text-anchor:middle;fill:#e79c6a;fill-opacity:1;stroke:none;stroke-width:1.76775944px;stroke-linecap:butt;stroke-linejoin:miter;stroke-opacity:1"
       xml:space="preserve"><tspan
         style="font-style:normal;font-variant:normal;font-weight:bold;font-stretch:normal;font-family:Montserrat;-inkscape-font-specification:'Montserrat Bold';fill:#e79c6a;fill-opacity:1;stroke-width:1.76775944px"
         y="245.11774"
         x="45.136902"
         id="tspan5143"
         sodipodi:role="line">IN</tspan></text>
  </g>
</svg>
