<?xml version="1.0" encoding="UTF-8" standalone="no"?>
<!-- Created with Inkscape (http://www.inkscape.org/) -->

<svg
   xmlns:dc="http://purl.org/dc/elements/1.1/"
   xmlns:cc="http://creativecommons.org/ns#"
   xmlns:rdf="http://www.w3.org/1999/02/22-rdf-syntax-ns#"
   xmlns:svg="http://www.w3.org/2000/svg"
   xmlns="http://www.w3.org/2000/svg"
   xmlns:sodipodi="http://sodipodi.sourceforge.net/DTD/sodipodi-0.dtd"
   xmlns:inkscape="http://www.inkscape.org/namespaces/inkscape"
   width="600"
   height="200"
   viewBox="0 0 158.75 52.916668"
   version="1.1"
   id="svg4535"
   inkscape:version="0.92.4 (5da689c313, 2019-01-14)"
   sodipodi:docname="logo 1 hor.svg">
  <defs
     id="defs4529" />
  <sodipodi:namedview
     id="base"
     pagecolor="#ffffff"
     bordercolor="#666666"
     borderopacity="1.0"
     inkscape:pageopacity="0.0"
     inkscape:pageshadow="2"
     inkscape:zoom="1.4"
     inkscape:cx="324.9626"
     inkscape:cy="78.011463"
     inkscape:document-units="mm"
     inkscape:current-layer="layer1"
     showgrid="false"
     units="px"
     inkscape:snap-global="false"
     inkscape:window-width="1920"
     inkscape:window-height="1017"
     inkscape:window-x="-8"
     inkscape:window-y="-8"
     inkscape:window-maximized="1" />
  <metadata
     id="metadata4532">
    <rdf:RDF>
      <cc:Work
         rdf:about="">
        <dc:format>image/svg+xml</dc:format>
        <dc:type
           rdf:resource="http://purl.org/dc/dcmitype/StillImage" />
        <dc:title></dc:title>
      </cc:Work>
    </rdf:RDF>
  </metadata>
  <g
     inkscape:label="Layer 1"
     inkscape:groupmode="layer"
     id="layer1"
     transform="translate(0,-244.08331)">
    <g
       id="g5208">
      <text
         id="text5121"
         y="280.43427"
         x="46.317802"
         style="font-style:normal;font-variant:normal;font-weight:normal;font-stretch:normal;font-size:26.95541191px;line-height:125%;font-family:Montserrat;-inkscape-font-specification:Montserrat;text-align:center;letter-spacing:0px;word-spacing:0px;text-anchor:middle;fill:#e79c6a;fill-opacity:1;stroke:none;stroke-width:0.91893429px;stroke-linecap:butt;stroke-linejoin:miter;stroke-opacity:1"
         xml:space="preserve"><tspan
           style="font-style:normal;font-variant:normal;font-weight:bold;font-stretch:normal;font-family:Montserrat;-inkscape-font-specification:'Montserrat Bold';fill:#e79c6a;fill-opacity:1;stroke-width:0.91893429px"
           y="280.43427"
           x="46.317802"
           id="tspan5119"
           sodipodi:role="line">book</tspan></text>
      <path
         inkscape:transform-center-y="-5.2745176"
         inkscape:transform-center-x="3.9438957"
         style="fill:#a2a4bb;fill-opacity:1;stroke-width:0.0515733"
         id="path5115"
         d="m 98.111085,255.01553 c 0.214676,-0.41682 0.657325,-0.6428 1.13407,-0.5793 l 2.704675,0.36142 0.50891,-2.68157 c 0.11357,-0.5971 0.6387,-0.97622 1.24119,-0.89613 l 2.70547,0.36085 0.50891,-2.68155 c 0.11357,-0.59712 0.6387,-0.97624 1.2412,-0.89615 l 3.17318,0.32744 0.0412,-2.64816 c 0.0889,-0.472 0.44234,-0.82068 0.90475,-0.89272 0.46244,-0.072 0.9515,0.14438 1.24882,0.55619 l 14.72335,20.39288 c 0.29827,0.4131 0.34919,0.94466 0.13479,1.36021 -0.2144,0.41553 -0.65662,0.64125 -1.13265,0.57706 l -2.7051,-0.3603 -0.50928,2.68102 c -0.1137,0.59693 -0.63882,0.97607 -1.2412,0.89613 l -2.70509,-0.36032 -0.50928,2.68104 c -0.1137,0.59692 -0.63883,0.97607 -1.2412,0.89613 l -2.70509,-0.36032 -0.50849,2.68048 c -0.0897,0.47261 -0.44348,0.82163 -0.90617,0.89495 -0.46246,0.0732 -0.94923,-0.14353 -1.24749,-0.55687 L 98.247195,256.37508 c -0.297323,-0.41183 -0.350563,-0.94291 -0.13612,-1.35955 z"
         inkscape:connector-curvature="0"
         sodipodi:nodetypes="cccccccccccsscccccccccccsscc" />
      <path
         sodipodi:nodetypes="cccccccccccsscccccccccccsscc"
         inkscape:connector-curvature="0"
         d="m 112.01699,244.73956 c 0.42586,-0.19615 0.91376,-0.10155 1.25022,0.24215 l 1.90813,1.95062 2.05258,-1.79909 c 0.45725,-0.40041 1.10445,-0.37564 1.52977,0.0585 l 1.90911,1.95067 2.05258,-1.79909 c 0.45724,-0.40041 1.10445,-0.37566 1.52976,0.0585 l 2.17639,2.21794 1.78531,-2.06636 c 0.36076,-0.31706 0.85397,-0.37409 1.26262,-0.14592 0.40864,0.22811 0.66066,0.69979 0.64124,1.20735 l -0.96165,25.13407 c -0.0194,0.50919 -0.30676,0.95929 -0.73161,1.15461 -0.42485,0.19529 -0.91226,0.10087 -1.24773,-0.24304 l -1.90914,-1.95002 -2.05255,1.79844 c -0.45724,0.40022 -1.10445,0.37546 -1.52977,-0.0585 l -1.90914,-1.95003 -2.05255,1.79844 c -0.45724,0.40022 -1.10445,0.37546 -1.52976,-0.0585 l -1.90914,-1.95003 -2.05158,1.79846 c -0.36174,0.31709 -0.85545,0.37414 -1.26511,0.14694 -0.40936,-0.22724 -0.65926,-0.69789 -0.63978,-1.20706 l 0.96165,-25.13408 c 0.0193,-0.50757 0.30458,-0.95873 0.73015,-1.15487 z"
         id="path5113"
         style="fill:#decd87;fill-opacity:1;stroke-width:0.0515733"
         inkscape:transform-center-x="-0.14208493"
         inkscape:transform-center-y="-6.584789" />
      <path
         inkscape:transform-center-y="-5.1203686"
         inkscape:transform-center-x="-4.1421722"
         style="fill:#e79c6a;fill-opacity:1;stroke-width:0.0515733"
         id="path5117"
         d="m 129.17964,245.16398 c 0.45682,0.10564 0.78474,0.47898 0.84046,0.95671 l 0.31504,2.71046 2.72435,-0.16639 c 0.60669,-0.0369 1.10334,0.37894 1.17392,0.98262 l 0.31579,2.71109 2.72435,-0.16639 c 0.60669,-0.0369 1.10334,0.37893 1.17392,0.98262 l 0.31579,3.47947 2.72435,-0.46707 c 0.47936,-0.0299 0.90429,-0.24084 1.08785,0.18963 0.18354,0.43052 0.0941,0.95778 -0.23189,1.34726 l -16.14433,19.2875 c -0.32705,0.39071 -0.82973,0.57083 -1.28525,0.46526 -0.45551,-0.10564 -0.78308,-0.47871 -0.83795,-0.95591 l -0.31621,-2.7106 -2.72393,0.16588 c -0.60656,0.0367 -1.10321,-0.37909 -1.17392,-0.9826 l -0.31621,-2.7106 -2.72393,0.16588 c -0.60655,0.0367 -1.10321,-0.37911 -1.17392,-0.98264 l -0.31621,-2.71058 -2.72318,0.16657 c -0.48014,0.0294 -0.90548,-0.22773 -1.09036,-0.65818 -0.18464,-0.43025 -0.0942,-0.95541 0.23287,-1.34615 l 16.14433,-19.28749 c 0.32602,-0.38949 0.82768,-0.57174 1.28427,-0.46635 z"
         inkscape:connector-curvature="0"
         sodipodi:nodetypes="cccccccccccsscccccccccccssc" />
      <path
         sodipodi:nodetypes="cccccccccccsscccccccccccsscc"
         inkscape:connector-curvature="0"
         d="m 142.71764,256.37223 c 0.29067,0.3679 0.31339,0.8643 0.0584,1.27212 l -1.44765,2.31303 2.23101,1.57239 c 0.49668,0.35031 0.62465,0.98526 0.30254,1.5007 l -1.44746,2.31401 2.231,1.57238 c 0.49668,0.35032 0.62465,0.98527 0.30254,1.5007 l -1.68131,2.84854 2.46485,1.03786 c 0.39294,0.27616 0.56425,0.74216 0.43858,1.19296 -0.12571,0.45079 -0.52496,0.80658 -1.02287,0.90697 l -24.65636,4.97093 c -0.49949,0.10069 -1.00449,-0.0729 -1.29418,-0.43983 -0.28967,-0.36704 -0.31226,-0.86304 -0.0569,-1.26991 l 1.44683,-2.31388 -2.23037,-1.57252 c -0.49648,-0.35037 -0.62445,-0.9853 -0.30255,-1.50068 l 1.44683,-2.31388 -2.23037,-1.57251 c -0.49648,-0.35037 -0.62444,-0.98532 -0.30254,-1.50071 l 1.44683,-2.31387 -2.23017,-1.57155 c -0.39322,-0.2771 -0.56466,-0.74361 -0.44004,-1.19518 0.12469,-0.4513 0.52345,-0.80479 1.02295,-0.9055 l 24.65636,-4.97093 c 0.49792,-0.10035 1.00346,0.0707 1.29411,0.43836 z"
         id="path5127"
         style="fill:#e75c6a;fill-opacity:1;stroke-width:0.0515733"
         inkscape:transform-center-x="-6.4337599"
         inkscape:transform-center-y="-1.4090625" />
      <path
         inkscape:transform-center-y="2.8603878"
         inkscape:transform-center-x="-5.9326186"
         style="fill:#a55c6a;fill-opacity:1;stroke-width:0.0515733"
         id="path5129"
         d="m 146.31788,273.31897 c 0.002,0.46888 -0.28666,0.87354 -0.73897,1.03715 l -2.56639,0.92704 0.78553,2.61393 c 0.17472,0.58215 -0.11634,1.1608 -0.68786,1.36766 l -2.56685,0.92794 0.78553,2.61395 c 0.17472,0.58213 -0.11634,1.16076 -0.68786,1.36765 l -3.50227,1.12836 1.35345,2.48034 c 0.13883,0.45978 0.3535,0.86537 -0.0234,1.14259 -0.37706,0.27721 -0.91079,0.31085 -1.36457,0.0826 L 114.6336,277.7069 c -0.45516,-0.22899 -0.74556,-0.67708 -0.74708,-1.14463 -0.001,-0.4676 0.28676,-0.87186 0.73874,-1.0345 l 2.56627,-0.92823 -0.78495,-2.61365 c -0.17452,-0.58208 0.11653,-1.16069 0.68784,-1.36765 l 2.56627,-0.92823 -0.78495,-2.61365 c -0.17452,-0.58206 0.11655,-1.16071 0.68785,-1.36765 l 2.56628,-0.92822 -0.78539,-2.61279 c -0.13849,-0.46067 0.0145,-0.93356 0.39115,-1.21204 0.37657,-0.27825 0.90849,-0.31037 1.36372,-0.0814 l 22.4706,11.30127 c 0.45374,0.22826 0.74603,0.67481 0.74793,1.14343 z"
         inkscape:connector-curvature="0"
         sodipodi:nodetypes="cccccccccccsscccccccccccsscc" />
      <path
         sodipodi:nodetypes="cccccccccccsscccccccccccsscc"
         inkscape:connector-curvature="0"
         d="m 138.49429,289.0741 c -0.29183,0.36699 -0.76994,0.50241 -1.22521,0.34726 l -2.58244,-0.88137 -1.02153,2.53104 c -0.22767,0.56355 -0.81664,0.83309 -1.39199,0.63715 l -2.58336,-0.88096 -1.02154,2.53106 c -0.22766,0.56353 -0.81663,0.83308 -1.39199,0.63716 l -2.81719,-1.048 -0.7877,2.69808 c -0.17917,0.44563 -0.59379,0.71876 -1.06133,0.69936 -0.46761,-0.0188 -0.42727,-0.63241 -0.64878,-1.08954 l -10.93629,-22.56972 c -0.22218,-0.45853 -0.15843,-0.99458 0.13275,-1.3604 0.29128,-0.36579 0.76897,-0.50106 1.22339,-0.34535 l 2.58307,0.88036 1.02181,-2.53044 c 0.22778,-0.56338 0.81673,-0.83292 1.39198,-0.63717 l 2.58308,0.88036 1.0218,-2.53044 c 0.22779,-0.56336 0.81676,-0.83292 1.39201,-0.63717 l 2.58307,0.88038 1.02093,-2.53007 c 0.17998,-0.44608 0.59508,-0.71945 1.06315,-0.70124 0.46784,0.0188 0.90304,0.32588 1.11511,0.78923 l 10.46856,22.8704 c 0.21135,0.46185 0.16021,0.99312 -0.13135,1.36001 z"
         id="path5131"
         style="fill:#a55ca5;fill-opacity:1;stroke-width:0.0515733"
         inkscape:transform-center-x="-2.8407051"
         inkscape:transform-center-y="5.9419482" />
      <path
         inkscape:transform-center-y="6.4462563"
         inkscape:transform-center-x="1.3512401"
         style="fill:#a5bda5;fill-opacity:1;stroke-width:0.0515733"
         id="path5133"
         d="m 123.1427,296.41103 c -0.45472,0.11434 -0.91682,-0.0684 -1.18433,-0.4681 l -1.51659,-2.26843 -2.34857,1.39065 c -0.52311,0.30951 -1.15473,0.16605 -1.49287,-0.33906 l -1.51757,-2.26865 -2.34859,1.39065 c -0.52309,0.30951 -1.15471,0.16605 -1.49287,-0.33904 l -1.65118,-2.50251 -2.21496,1.6245 c -0.41296,0.24526 -0.90824,0.21048 -1.26794,-0.0887 -0.36016,-0.29882 -0.18002,-0.80797 -0.074,-1.30475 l 5.23628,-24.52787 c 0.10638,-0.49829 0.47808,-0.88641 0.93157,-1.00026 0.45354,-0.11366 0.91522,0.0689 1.18171,0.46851 l 1.51771,2.26801 2.34843,-1.38999 c 0.52309,-0.30931 1.15469,-0.16588 1.49287,0.33902 l 1.51771,2.26802 2.34843,-1.39001 c 0.52308,-0.30928 1.15471,-0.16572 1.49289,0.33905 l 1.51769,2.26802 2.34751,-1.39023 c 0.41388,-0.24512 0.90968,-0.21028 1.27052,0.0884 0.36034,0.29897 0.51959,0.80729 0.40671,1.30419 l -5.57037,24.52788 c -0.11254,0.4953 -0.47578,0.88634 -0.93021,1.00079 z"
         inkscape:connector-curvature="0"
         sodipodi:nodetypes="cccccccccccsscccccccccccsscc" />
      <path
         sodipodi:nodetypes="cccccccccccsscccccccccccsscc"
         inkscape:connector-curvature="0"
         d="m 106.54003,292.87182 c -0.4354,-0.18963 -0.69291,-0.62198 -0.66019,-1.10798 l 0.18701,-2.75727 -2.74363,-0.33755 c -0.61095,-0.0754 -1.02871,-0.58114 -0.98745,-1.19534 l 0.21976,-3.42623 -2.777062,-0.0703 c -0.610924,-0.0754 -1.028688,-0.18023 -0.987458,-0.79441 l 0.186353,-2.75807 -2.743633,-0.33756 c -0.482887,-0.0585 -0.858551,-0.39305 -0.961882,-0.85554 -0.103982,-0.4624 0.08319,-0.97109 0.479852,-1.29873 l 19.63947,-16.22405 c 0.39789,-0.3286 0.9317,-0.41514 1.36579,-0.22591 0.43407,0.18941 0.69134,0.62137 0.65786,1.10669 l -0.18585,2.75764 2.74311,0.33799 c 0.61081,0.0757 1.02857,0.58126 0.98747,1.19531 l -0.18584,2.75765 2.74313,0.33796 c 0.61077,0.0757 1.02856,0.58134 0.98746,1.1954 l -0.18587,2.75759 2.74252,0.33725 c 0.48353,0.0595 0.85958,0.39406 0.96422,0.85678 0.10404,0.46262 -0.0827,0.96877 -0.48058,1.29745 l -19.63949,16.22408 c -0.39663,0.32759 -0.92981,0.41647 -1.36503,0.22714 z"
         id="path5135"
         style="fill:#3dbda5;fill-opacity:1;stroke-width:0.05223283"
         inkscape:transform-center-x="5.0707861"
         inkscape:transform-center-y="4.333565" />
      <path
         sodipodi:nodetypes="cccccccccccsscccccccccccssc"
         inkscape:connector-curvature="0"
         d="m 83.829094,283.52917 c -0.317251,-0.60329 -0.21729,-1.31875 0.255792,-1.83361 l 2.685676,-2.91956 -2.76908,-2.84203 c -0.616478,-0.63306 -0.62999,-1.57462 -0.03231,-2.22535 l 2.685654,-2.92105 -2.769077,-2.84207 c -0.616463,-0.63305 -0.629974,-1.57462 -0.03231,-2.22535 l 2.685681,-2.92101 -2.769077,-2.8421 c -0.488027,-0.49939 -0.608428,-1.21116 -0.308775,-1.82183 0.298855,-0.61116 0.965298,-1.01271 1.703667,-1.02343 l 36.562585,-0.52914 c 0.74068,-0.0114 1.41611,0.37171 1.73227,0.97364 0.31596,0.60189 0.21611,1.3167 -0.25728,1.83007 l -2.68472,2.92097 2.76811,2.84211 c 0.61617,0.63309 0.62973,1.57466 0.0323,2.22531 l -2.68473,2.92105 2.76816,2.84203 c 0.61614,0.63309 0.62967,1.5747 0.0323,2.22543 l -2.68472,2.92093 2.76813,2.84074 c 0.48809,0.50075 0.60865,1.21324 0.31026,1.82536 -0.29901,0.61143 -0.96266,1.01051 -1.70336,1.0213 l -36.562616,0.52911 c -0.738319,0.0114 -1.415218,-0.36868 -1.732526,-0.97152 z"
         id="path5139"
         style="fill:#4b81d3;fill-opacity:1;stroke-width:0.0749768"
         inkscape:transform-center-x="4.2974126"
         inkscape:transform-center-y="0.13384328" />
      <text
         xml:space="preserve"
         style="font-style:normal;font-variant:normal;font-weight:normal;font-stretch:normal;font-size:26.95541191px;line-height:125%;font-family:Montserrat;-inkscape-font-specification:Montserrat;text-align:center;letter-spacing:0px;word-spacing:0px;text-anchor:middle;fill:#000000;fill-opacity:1;stroke:none;stroke-width:0.91893429px;stroke-linecap:butt;stroke-linejoin:miter;stroke-opacity:1"
         x="103.79"
         y="279.97598"
         id="text5145"><tspan
           sodipodi:role="line"
           id="tspan5143"
           x="103.79"
           y="279.97598"
           style="font-style:normal;font-variant:normal;font-weight:bold;font-stretch:normal;font-family:Montserrat;-inkscape-font-specification:'Montserrat Bold';fill:#000000;fill-opacity:1;stroke-width:0.91893429px">IN</tspan></text>
    </g>
  </g>
</svg>
