<?xml version="1.0" encoding="UTF-8" standalone="no"?>
<svg
   xmlns:dc="http://purl.org/dc/elements/1.1/"
   xmlns:cc="http://creativecommons.org/ns#"
   xmlns:rdf="http://www.w3.org/1999/02/22-rdf-syntax-ns#"
   xmlns:svg="http://www.w3.org/2000/svg"
   xmlns="http://www.w3.org/2000/svg"
   id="svg4535"
   version="1.1"
   viewBox="0 0 158.75 158.75"
   height="600"
   width="600">
  <defs
     id="defs4529" />
  <metadata
     id="metadata4532">
    <rdf:RDF>
      <cc:Work
         rdf:about="">
        <dc:format>image/svg+xml</dc:format>
        <dc:type
           rdf:resource="http://purl.org/dc/dcmitype/StillImage" />
        <dc:title></dc:title>
      </cc:Work>
    </rdf:RDF>
  </metadata>
  <g
     transform="translate(0,-138.24998)"
     id="layer1">
    <path
       style="fill:#a2a4bb;fill-opacity:1;stroke-width:0.05583041"
       id="path5115"
       d="m 61.299631,200.81727 c 0.23239,-0.45123 0.711578,-0.69586 1.227681,-0.62712 l 2.927927,0.39126 0.550918,-2.90293 c 0.122944,-0.64638 0.691421,-1.0568 1.343643,-0.9701 l 2.928793,0.39064 0.550918,-2.9029 c 0.122944,-0.64641 0.691421,-1.05682 1.343654,-0.97012 l 3.43511,0.35447 0.0446,-2.86676 c 0.09624,-0.51096 0.478853,-0.88842 0.979433,-0.9664 0.500612,-0.0779 1.030042,0.15629 1.351904,0.60209 l 15.938689,22.07621 c 0.32289,0.4472 0.378015,1.02264 0.145916,1.47249 -0.232098,0.44983 -0.71082,0.69418 -1.226144,0.62469 l -2.928393,-0.39004 -0.551317,2.90233 c -0.123088,0.6462 -0.691553,1.05664 -1.343656,0.9701 l -2.928381,-0.39006 -0.551319,2.90234 c -0.123085,0.64619 -0.691562,1.05664 -1.343654,0.9701 l -2.928384,-0.39006 -0.550463,2.90174 c -0.0971,0.51162 -0.480087,0.88945 -0.980969,0.96882 -0.500634,0.0792 -1.027585,-0.15537 -1.350464,-0.60283 L 61.446976,202.28904 c -0.321873,-0.44582 -0.379508,-1.02074 -0.147356,-1.47177 z" />
    <path
       d="m 76.35339,189.69307 c 0.461013,-0.21234 0.989187,-0.10993 1.35342,0.26214 l 2.065636,2.11163 2.222012,-1.94759 c 0.494993,-0.43346 1.195616,-0.40665 1.656044,0.0633 l 2.066697,2.11168 2.22201,-1.94759 c 0.494983,-0.43347 1.195619,-0.40667 1.656034,0.0633 l 2.35604,2.40102 1.932678,-2.23692 c 0.390539,-0.34323 0.924462,-0.40497 1.366844,-0.15797 0.44237,0.24694 0.715192,0.75756 0.69417,1.30702 l -1.041031,27.20875 c -0.02099,0.55122 -0.332079,1.03848 -0.791998,1.24992 -0.459919,0.21141 -0.987562,0.1092 -1.350725,-0.2631 l -2.066731,-2.11099 -2.221976,1.94689 c -0.494983,0.43326 -1.195616,0.40646 -1.656044,-0.0633 l -2.06673,-2.111 -2.221977,1.94689 c -0.494983,0.43326 -1.195617,0.40646 -1.656034,-0.0633 l -2.066732,-2.11099 -2.220927,1.94691 c -0.3916,0.34327 -0.926063,0.40503 -1.369538,0.15907 -0.443151,-0.246 -0.713679,-0.7555 -0.692591,-1.3067 l 1.041029,-27.20876 c 0.02089,-0.54947 0.329722,-1.03787 0.79042,-1.2502 z"
       id="path5113"
       style="fill:#decd87;fill-opacity:1;stroke-width:0.05583041" />
    <path
       style="fill:#e79c6a;fill-opacity:1;stroke-width:0.05583041"
       id="path5117"
       d="m 94.932729,190.15253 c 0.494527,0.11436 0.849519,0.51851 0.909839,1.03568 l 0.341042,2.93419 2.949233,-0.18012 c 0.656768,-0.04 1.194417,0.41021 1.270817,1.06373 l 0.34186,2.93487 2.94923,-0.18012 c 0.65677,-0.04 1.19442,0.41021 1.27082,1.06373 l 0.34186,3.76668 2.94923,-0.50563 c 0.51893,-0.0324 0.97893,-0.26072 1.17764,0.20529 0.19869,0.46606 0.10187,1.03684 -0.25103,1.45847 l -17.476954,20.87958 c -0.354049,0.42296 -0.898223,0.61795 -1.391342,0.50366 -0.493111,-0.11436 -0.847722,-0.51822 -0.90712,-1.03481 l -0.342309,-2.93435 -2.948778,0.17958 c -0.656629,0.0397 -1.194274,-0.41039 -1.270821,-1.06371 l -0.342312,-2.93435 -2.948776,0.17958 c -0.656618,0.0397 -1.194276,-0.41041 -1.270823,-1.06376 l -0.342312,-2.93432 -2.947964,0.18032 c -0.519773,0.0318 -0.980223,-0.24653 -1.180364,-0.71251 -0.199881,-0.46577 -0.101975,-1.03427 0.252092,-1.45727 L 93.54245,190.65737 c 0.352932,-0.42164 0.896,-0.61893 1.390279,-0.50484 z" />
    <path
       d="m 109.58822,202.28596 c 0.31467,0.39826 0.33926,0.93564 0.0632,1.37712 l -1.56714,2.50396 2.41517,1.70219 c 0.53767,0.37922 0.67621,1.06658 0.32751,1.62457 l -1.56694,2.50502 2.41516,1.70217 c 0.53767,0.37924 0.6762,1.0666 0.32751,1.62458 l -1.82009,3.08367 2.66831,1.12353 c 0.42537,0.29895 0.61082,0.80342 0.47478,1.29143 -0.13609,0.488 -0.56829,0.87316 -1.1073,0.98184 l -26.691619,5.38125 c -0.540721,0.109 -1.087406,-0.0789 -1.401008,-0.47614 -0.313581,-0.39733 -0.338036,-0.93427 -0.0616,-1.37473 l 1.566258,-2.50488 -2.414475,-1.70232 c -0.537462,-0.37929 -0.675995,-1.06663 -0.327524,-1.62455 l 1.566258,-2.50488 -2.414475,-1.70231 c -0.537462,-0.3793 -0.675985,-1.06666 -0.327513,-1.62459 l 1.566258,-2.50487 -2.414259,-1.70127 c -0.425681,-0.29998 -0.611272,-0.80499 -0.476365,-1.29384 0.134982,-0.48855 0.56666,-0.87122 1.107391,-0.98024 l 26.691623,-5.38126 c 0.53902,-0.10863 1.08628,0.0765 1.40093,0.47455 z"
       id="path5127"
       style="fill:#e75c6a;fill-opacity:1;stroke-width:0.05583041" />
    <path
       style="fill:#a55c6a;fill-opacity:1;stroke-width:0.05583041"
       id="path5129"
       d="m 113.48564,220.63156 c 0.002,0.50759 -0.31032,0.94565 -0.79996,1.12276 l -2.77824,1.00357 0.85038,2.82969 c 0.18913,0.63021 -0.12595,1.25662 -0.74464,1.48056 l -2.77873,1.00453 0.85036,2.82972 c 0.18915,0.63018 -0.12594,1.25658 -0.74463,1.48054 l -3.79137,1.2215 1.46517,2.68508 c 0.15029,0.49773 0.38268,0.9368 -0.0253,1.23691 -0.40818,0.30009 -0.98597,0.33651 -1.47721,0.0894 L 79.185988,225.38169 c -0.492731,-0.24789 -0.807102,-0.73297 -0.808747,-1.23911 -0.0011,-0.5062 0.31043,-0.94383 0.799718,-1.11989 l 2.778105,-1.00485 -0.849743,-2.8294 c -0.188926,-0.63012 0.126148,-1.25649 0.744617,-1.48054 l 2.778102,-1.00485 -0.849743,-2.82939 c -0.188926,-0.63011 0.12617,-1.25652 0.744628,-1.48054 l 2.778113,-1.00485 -0.850219,-2.82846 c -0.149922,-0.49869 0.01569,-1.01062 0.423437,-1.31208 0.407654,-0.30122 0.983481,-0.33599 1.476288,-0.0881 l 24.325426,12.23413 c 0.4912,0.2471 0.80762,0.73051 0.80967,1.23781 z" />
    <path
       d="m 105.01626,237.6872 c -0.31592,0.39728 -0.8335,0.54388 -1.32635,0.37592 l -2.7956,-0.95412 -1.10586,2.73996 c -0.246459,0.61007 -0.884047,0.90186 -1.506888,0.68974 l -2.796603,-0.95367 -1.105864,2.73998 c -0.246451,0.61005 -0.884038,0.90185 -1.506893,0.68976 l -3.049732,-1.13451 -0.852721,2.92079 c -0.193961,0.48242 -0.642805,0.77809 -1.148938,0.75709 -0.506208,-0.0204 -0.462539,-0.68461 -0.702333,-1.17948 L 75.279452,219.94593 c -0.24052,-0.49637 -0.171508,-1.07668 0.143707,-1.47269 0.315324,-0.39598 0.832445,-0.54242 1.324375,-0.37386 l 2.796289,0.95303 1.106157,-2.73931 c 0.246583,-0.60989 0.884147,-0.90168 1.506881,-0.68977 l 2.7963,0.95303 1.106144,-2.73931 c 0.246593,-0.60987 0.88418,-0.90168 1.506914,-0.68977 l 2.796289,0.95305 1.105204,-2.73891 c 0.194833,-0.4829 0.644199,-0.77884 1.150905,-0.75913 0.506457,0.0204 0.97758,0.35278 1.207155,0.85438 l 11.332688,24.75823 c 0.22879,0.49997 0.17343,1.0751 -0.14219,1.47228 z"
       id="path5131"
       style="fill:#a55ca5;fill-opacity:1;stroke-width:0.05583041" />
    <path
       style="fill:#a5bda5;fill-opacity:1;stroke-width:0.05583041"
       id="path5133"
       d="m 88.397472,245.62975 c -0.492255,0.12378 -0.992499,-0.074 -1.28209,-0.50674 l -1.641777,-2.45567 -2.542432,1.50544 c -0.56629,0.33506 -1.250047,0.17975 -1.616099,-0.36705 l -1.642839,-2.45592 -2.542454,1.50544 c -0.566269,0.33506 -1.250025,0.17976 -1.616099,-0.36702 l -1.787476,-2.70908 -2.397794,1.75859 c -0.447047,0.26551 -0.98321,0.22786 -1.372601,-0.096 -0.38989,-0.32348 -0.19488,-0.87466 -0.08011,-1.41245 l 5.668508,-26.55252 c 0.115161,-0.53942 0.517543,-0.95958 1.008466,-1.08282 0.490977,-0.12305 0.990767,0.0746 1.279254,0.50718 l 1.642989,2.45522 2.542283,-1.50472 c 0.566268,-0.33485 1.250004,-0.17958 1.616099,0.367 l 1.642989,2.45523 2.542281,-1.50474 c 0.566257,-0.33482 1.250025,-0.1794 1.616119,0.36703 l 1.64297,2.45524 2.541282,-1.50499 c 0.448046,-0.26535 0.984772,-0.22764 1.375395,0.0957 0.390083,0.32364 0.562482,0.87392 0.440284,1.41184 l -6.030177,26.55253 c -0.121831,0.53618 -0.515053,0.9595 -1.006993,1.0834 z" />
    <path
       d="m 70.424336,241.7984 c -0.47134,-0.20529 -0.750106,-0.67332 -0.714686,-1.19944 l 0.202447,-2.98487 -2.970102,-0.36541 c -0.661381,-0.0816 -1.113625,-0.62911 -1.068959,-1.29401 l 0.2379,-3.70905 -3.006292,-0.0761 c -0.661348,-0.0816 -1.113603,-0.19511 -1.068969,-0.85998 l 0.201732,-2.98574 -2.970103,-0.36542 c -0.52275,-0.0633 -0.929419,-0.4255 -1.041278,-0.92616 -0.112563,-0.50057 0.09007,-1.05125 0.519459,-1.40594 l 21.260606,-17.56326 c 0.430734,-0.35572 1.00861,-0.44941 1.478531,-0.24456 0.469901,0.20505 0.748407,0.67266 0.712163,1.19804 l -0.20119,2.98528 2.969539,0.36589 c 0.661229,0.0819 1.113473,0.62924 1.06898,1.29397 l -0.20118,2.98528 2.969562,0.36586 c 0.661187,0.0819 1.113463,0.62932 1.06897,1.29407 l -0.201214,2.98522 2.9689,0.36508 c 0.523445,0.0644 0.930537,0.42659 1.043812,0.92751 0.112628,0.50081 -0.08952,1.04874 -0.520248,1.40455 L 71.902085,241.5525 c -0.429369,0.35463 -1.006561,0.45085 -1.477706,0.24589 z"
       id="path5135"
       style="fill:#3dbda5;fill-opacity:1;stroke-width:0.05654438" />
    <path
       d="m 45.838736,231.68456 c -0.343448,-0.65309 -0.235226,-1.4276 0.276905,-1.98496 l 2.907358,-3.16056 -2.997654,-3.07662 c -0.667356,-0.68532 -0.681992,-1.7046 -0.03497,-2.40905 l 2.907348,-3.16216 -2.997653,-3.07667 c -0.667346,-0.68531 -0.681971,-1.7046 -0.03497,-2.40904 l 2.907369,-3.16212 -2.997654,-3.0767 c -0.528303,-0.54062 -0.658642,-1.31114 -0.334257,-1.97222 0.323518,-0.66161 1.04498,-1.0963 1.844299,-1.10791 l 39.580634,-0.57282 c 0.801819,-0.0123 1.533002,0.4024 1.87526,1.05401 0.342039,0.65158 0.233946,1.42539 -0.278518,1.98114 l -2.90633,3.16208 2.996605,3.07671 c 0.667028,0.68535 0.681708,1.70464 0.03498,2.409 l -2.906342,3.16217 2.996656,3.07662 c 0.667001,0.68535 0.681646,1.70468 0.03498,2.40913 l -2.906329,3.16203 2.996625,3.07523 c 0.528378,0.54209 0.658889,1.31339 0.33587,1.97604 -0.323692,0.6619 -1.042122,1.09392 -1.843963,1.1056 l -39.580666,0.57278 c -0.799264,0.0124 -1.532039,-0.39911 -1.875541,-1.05171 z"
       id="path5139"
       style="fill:#4b81d3;fill-opacity:1;stroke-width:0.08116575" />
    <text
       id="text5121"
       y="211.84015"
       x="63.894291"
       style="font-style:normal;font-variant:normal;font-weight:normal;font-stretch:normal;font-size:8.61199474px;line-height:125%;font-family:Montserrat;-inkscape-font-specification:Montserrat;text-align:center;letter-spacing:0px;word-spacing:0px;text-anchor:middle;fill:#000000;fill-opacity:1;stroke:none;stroke-width:0.29359069px;stroke-linecap:butt;stroke-linejoin:miter;stroke-opacity:1"
       xml:space="preserve"><tspan
         style="font-style:normal;font-variant:normal;font-weight:bold;font-stretch:normal;font-family:Montserrat;-inkscape-font-specification:'Montserrat Bold';fill:#000000;fill-opacity:1;stroke-width:0.29359069px"
         y="211.84015"
         x="63.894291"
         id="tspan5119">book</tspan></text>
    <text
       xml:space="preserve"
       style="font-style:normal;font-variant:normal;font-weight:normal;font-stretch:normal;font-size:22.96331596px;line-height:125%;font-family:Montserrat;-inkscape-font-specification:Montserrat;text-align:center;letter-spacing:0px;word-spacing:0px;text-anchor:middle;fill:#e79c6a;fill-opacity:1;stroke:none;stroke-width:0.78284007px;stroke-linecap:butt;stroke-linejoin:miter;stroke-opacity:1"
       x="64.212891"
       y="229.79996"
       id="text5145"><tspan
         id="tspan5143"
         x="64.212891"
         y="229.79996"
         style="font-style:normal;font-variant:normal;font-weight:bold;font-stretch:normal;font-family:Montserrat;-inkscape-font-specification:'Montserrat Bold';fill:#e79c6a;fill-opacity:1;stroke-width:0.78284007px">IN</tspan></text>
  </g>
</svg>
